<?xml version="1.0" encoding="utf-8"?>
<!-- Generator: Adobe Illustrator 16.0.0, SVG Export Plug-In . SVG Version: 6.00 Build 0)  -->
<!DOCTYPE svg PUBLIC "-//W3C//DTD SVG 1.1//EN" "http://www.w3.org/Graphics/SVG/1.1/DTD/svg11.dtd">
<svg version="1.1" id="Image-4.1" xmlns="http://www.w3.org/2000/svg" xmlns:xlink="http://www.w3.org/1999/xlink" x="0px" y="0px"
	 width="850px" height="695px" viewBox="0 0 850 695" enable-background="new 0 0 850 695" xml:space="preserve">
<g>
	<g>
		<path fill="#F2CBCB" d="M850,675c0,11-9,20-20,20H20c-11,0-20-9-20-20V20C0,9,9,0,20,0h810c11,0,20,9,20,20V675z"/>
	</g>
	<g>
		<text transform="matrix(0.95 0 0 1.1 350.4585 52.1484)" fill="#B35C5A" font-family="'SourceSansPro-Black'" font-size="30">Frontpage</text>
	</g>
	<g id="business_1_" display="none">
		<g display="inline">
			<path fill="#D7E8D2" d="M820.565,613.607c0,8.25-6.75,15-15,15H45.566c-8.25,0-15-6.75-15-15V463.421c0-8.25,6.75-15,15-15
				h759.999c8.25,0,15,6.75,15,15V613.607z"/>
		</g>
		
			<text transform="matrix(0.95 0 0 1.1 364.2051 500.2148)" display="inline" fill="#76986B" font-family="'SourceSansPro-Black'" font-size="30">Business</text>
		
			<text transform="matrix(1 0 0 1 473.5283 598.5166)" display="inline" fill="#75976B" stroke="#75976B" stroke-width="0.2" stroke-miterlimit="10" font-family="'SourceSansPro-Regular'" font-size="20">[node:4 node:5 node:6 node:business]</text>
	</g>
	<text id="tag_bottom_1_" transform="matrix(1 0 0 1 388.3804 662.5908)"><tspan x="0" y="0" fill="#75976B" stroke="#75976B" stroke-width="0.2" stroke-miterlimit="10" font-family="'SourceSansPro-Regular'" font-size="20">[node:1 </tspan><tspan x="67.819" y="0" fill="#B35C5A" stroke="#B35C5A" stroke-width="0.2" stroke-miterlimit="10" font-family="'SourceSansPro-Regular'" font-size="20">node:2</tspan><tspan x="125.538" y="0" fill="#75976B" stroke="#75976B" stroke-width="0.2" stroke-miterlimit="10" font-family="'SourceSansPro-Regular'" font-size="20"> ... node:7 </tspan><tspan x="210.317" y="0" fill="#B35C5A" stroke="#B35C5A" stroke-width="0.2" stroke-miterlimit="10" font-family="'SourceSansPro-Regular'" font-size="20">node:sport</tspan><tspan x="302.115" y="0" fill="#75976B" stroke="#75976B" stroke-width="0.2" stroke-miterlimit="10" font-family="'SourceSansPro-Regular'" font-size="20"> node:business]</tspan></text>
	<g id="sport_1_">
		<g>
			<path fill="#F2B4B3" d="M820.504,404.141c0,8.25-6.75,15-15,15H45.505c-8.25,0-15-6.75-15-15v-307c0-8.25,6.75-15,15-15h759.999
				c8.25,0,15,6.75,15,15V404.141z"/>
		</g>
		<g>
			<text transform="matrix(0.95 0 0 1.1 383.709 132.2148)" fill="#A65C5B" font-family="'SourceSansPro-Black'" font-size="30">Sport</text>
		</g>
		<g>
			<g>
				<path fill="#FFF1CC" d="M280.683,351.465c0,5.5-4.5,10-10,10h-200c-5.5,0-10-4.5-10-10v-180c0-5.5,4.5-10,10-10h200
					c5.5,0,10,4.5,10,10V351.465z"/>
			</g>
			<g>
				<path fill="#D7E8D2" d="M533.183,351.465c0,5.5-4.5,10-10,10h-200c-5.5,0-10-4.5-10-10v-180c0-5.5,4.5-10,10-10h200
					c5.5,0,10,4.5,10,10V351.465z"/>
			</g>
			<g>
				<path fill="#F2CBCB" d="M790.724,351.465c0,5.5-4.5,10-10,10h-200c-5.5,0-10-4.5-10-10v-180c0-5.5,4.5-10,10-10h200
					c5.5,0,10,4.5,10,10V351.465z"/>
			</g>
			<text transform="matrix(0.95 0 0 1.1 125.9678 207.9121)" fill="#BFA65F" font-family="'SourceSansPro-Black'" font-size="22">Article 7</text>
			<text transform="matrix(0.95 0 0 1.1 378.4668 207.9121)" fill="#75976B" font-family="'SourceSansPro-Black'" font-size="22">Article 1</text>
			<text transform="matrix(0.95 0 0 1.1 636.0088 207.9121)" fill="#B35C59" font-family="'SourceSansPro-Black'" font-size="22">Article 2</text>
			
				<text transform="matrix(1 0 0 1 135.7627 332.6724)" fill="#BFA65F" stroke="#BFA65F" stroke-width="0.2" stroke-miterlimit="10" font-family="'SourceSansPro-Regular'" font-size="20">[node:7]</text>
			
				<text transform="matrix(1 0 0 1 388.2627 332.6724)" fill="#76986B" stroke="#76986B" stroke-width="0.2" stroke-miterlimit="10" font-family="'SourceSansPro-Regular'" font-size="20">[node:1]</text>
			
				<text transform="matrix(1 0 0 1 645.8037 332.6724)" fill="#B35C5A" stroke="#B35C5A" stroke-width="0.2" stroke-miterlimit="10" font-family="'SourceSansPro-Regular'" font-size="20">[node:2]</text>
		</g>
		
			<text transform="matrix(1 0 0 1 502.4785 396.0781)" fill="#985D5C" stroke="#985D5C" stroke-width="0.2" stroke-miterlimit="10" font-family="'SourceSansPro-Regular'" font-size="20">[node:1 node:2 node:7 node:sport]</text>
	</g>
</g>
</svg>
