<?xml version="1.0" encoding="utf-8"?>
<!-- Generator: Adobe Illustrator 14.0.0, SVG Export Plug-In . SVG Version: 6.00 Build 43363)  -->
<!DOCTYPE svg PUBLIC "-//W3C//DTD SVG 1.1//EN" "http://www.w3.org/Graphics/SVG/1.1/DTD/svg11.dtd">
<svg version="1.1" id="Ebene_1" xmlns="http://www.w3.org/2000/svg" xmlns:xlink="http://www.w3.org/1999/xlink" x="0px" y="0px"
	 width="841.89px" height="595.28px" viewBox="0 0 841.89 595.28" enable-background="new 0 0 841.89 595.28" xml:space="preserve">
<g>
	<g>
		<path fill="#CBBB9D" d="M301.04,269.884l-15.649-0.009c-3.851,0-6.994,3.134-6.994,6.987c0,3.852,3.144,6.988,6.994,6.988
			l13.043-0.018c8.729,0,15.97,6.318,15.97,13.922c0,7.605-7.107,14.474-15.836,14.474h-27.072v-16.652
			c0-15.296-13.436-27.733-28.729-27.733c-7.986,0-15.527,3.439-20.755,9.349c-5.232-5.909-13.77-9.349-21.755-9.349
			c-15.293,0-27.734,12.438-27.738,27.733l-0.01,24.746c0,3.854,3.132,7.079,6.985,7.079c3.856,0,6.986-3.226,6.986-7.079h-0.019
			l0.003-22.144c0-8.73,6.188-15.834,13.792-15.834c7.5,0,14.68,7.017,14.777,15.612l-0.022,22.365c0,3.854,3.133,7.079,7,7.079
			c3.849,0,6.984-3.226,6.984-7.079l-0.009-22.288c0.067-8.65,6.25-15.689,13.781-15.689c7.599,0,14.785,7.104,14.785,15.834
			l-0.033,21.005c0,3.55,2.665,6.491,6.096,6.929l37.56,0.059c15.289,0,27.733-13.125,27.733-28.416
			C328.906,282.462,316.339,269.89,301.04,269.884z"/>
	</g>
	<g>
		<path fill="#393738" d="M375.525,310.864c0,2.655-0.489,5.018-1.466,7.089c-0.978,2.071-2.334,3.829-4.069,5.272
			c-1.736,1.444-3.778,2.531-6.126,3.26c-2.348,0.729-4.879,1.095-7.592,1.095c-1.896,0-3.654-0.161-5.272-0.481
			c-1.619-0.321-3.063-0.715-4.332-1.182s-2.334-0.947-3.194-1.444c-0.861-0.495-1.459-0.919-1.794-1.269
			c-0.336-0.351-0.584-0.795-0.744-1.335c-0.161-0.539-0.24-1.261-0.24-2.166c0-0.641,0.028-1.174,0.087-1.597
			c0.058-0.423,0.146-0.766,0.263-1.028c0.116-0.263,0.262-0.444,0.438-0.547c0.175-0.103,0.378-0.153,0.612-0.153
			c0.408,0,0.985,0.248,1.729,0.744s1.699,1.035,2.866,1.619c1.167,0.583,2.574,1.131,4.223,1.641
			c1.647,0.511,3.551,0.766,5.71,0.766c1.633,0,3.129-0.219,4.485-0.656s2.522-1.058,3.5-1.859c0.977-0.803,1.729-1.787,2.253-2.954
			c0.525-1.166,0.788-2.494,0.788-3.981c0-1.604-0.365-2.976-1.094-4.113c-0.729-1.138-1.692-2.137-2.888-2.998
			c-1.196-0.859-2.56-1.647-4.091-2.362c-1.531-0.715-3.1-1.444-4.704-2.188c-1.605-0.744-3.166-1.568-4.682-2.473
			c-1.517-0.904-2.874-1.969-4.069-3.194c-1.197-1.226-2.166-2.662-2.91-4.311c-0.744-1.647-1.116-3.624-1.116-5.929
			c0-2.362,0.43-4.47,1.291-6.323c0.86-1.852,2.057-3.405,3.588-4.659c1.532-1.254,3.354-2.21,5.47-2.866
			c2.115-0.656,4.397-0.984,6.848-0.984c1.254,0,2.516,0.109,3.785,0.328s2.465,0.511,3.588,0.875
			c1.123,0.365,2.122,0.773,2.997,1.225c0.875,0.453,1.451,0.817,1.729,1.094c0.277,0.278,0.459,0.497,0.547,0.657
			s0.16,0.364,0.219,0.612c0.058,0.248,0.102,0.547,0.131,0.896c0.029,0.351,0.044,0.803,0.044,1.356c0,0.525-0.022,0.992-0.066,1.4
			c-0.043,0.409-0.109,0.752-0.197,1.028c-0.087,0.277-0.212,0.481-0.372,0.613c-0.161,0.131-0.343,0.196-0.547,0.196
			c-0.321,0-0.825-0.203-1.51-0.612c-0.686-0.408-1.524-0.868-2.516-1.379c-0.992-0.51-2.166-0.977-3.522-1.399
			s-2.881-0.635-4.573-0.635c-1.575,0-2.947,0.212-4.113,0.635c-1.167,0.423-2.129,0.984-2.888,1.685
			c-0.759,0.7-1.328,1.531-1.707,2.494c-0.379,0.962-0.569,1.983-0.569,3.062c0,1.575,0.364,2.932,1.094,4.069
			c0.729,1.138,1.699,2.145,2.91,3.02s2.589,1.678,4.135,2.406c1.546,0.729,3.121,1.466,4.726,2.21
			c1.604,0.744,3.179,1.561,4.726,2.45c1.546,0.891,2.924,1.94,4.135,3.15c1.21,1.211,2.188,2.641,2.932,4.289
			C375.153,306.671,375.525,308.618,375.525,310.864z"/>
		<path fill="#393738" d="M404.338,304.738v20.872c0,0.234-0.058,0.438-0.174,0.613c-0.116,0.175-0.319,0.313-0.609,0.415
			c-0.29,0.103-0.682,0.189-1.175,0.263c-0.493,0.072-1.087,0.109-1.783,0.109c-0.726,0-1.327-0.037-1.806-0.109
			c-0.479-0.073-0.871-0.16-1.175-0.263c-0.305-0.102-0.515-0.24-0.631-0.415c-0.116-0.176-0.174-0.379-0.174-0.613v-20.872
			l-16.015-31.942c-0.321-0.671-0.518-1.195-0.591-1.575c-0.073-0.379,0-0.671,0.219-0.875c0.219-0.204,0.612-0.335,1.181-0.394
			s1.334-0.088,2.297-0.088c0.875,0,1.582,0.029,2.122,0.088c0.54,0.059,0.97,0.139,1.291,0.24c0.32,0.103,0.561,0.248,0.722,0.438
			c0.16,0.19,0.313,0.431,0.459,0.722l7.833,16.278c0.727,1.546,1.453,3.165,2.178,4.856c0.725,1.692,1.464,3.399,2.219,5.12h0.087
			c0.667-1.663,1.355-3.318,2.066-4.967c0.71-1.647,1.43-3.274,2.158-4.879l7.876-16.365c0.087-0.291,0.211-0.539,0.372-0.743
			c0.16-0.204,0.379-0.357,0.656-0.46c0.277-0.102,0.663-0.182,1.16-0.24c0.496-0.059,1.123-0.088,1.881-0.088
			c1.05,0,1.874,0.037,2.472,0.109c0.598,0.073,1.014,0.212,1.247,0.416s0.313,0.496,0.241,0.875c-0.073,0.379-0.27,0.89-0.59,1.531
			L404.338,304.738z"/>
		<path fill="#393738" d="M460.543,310.864c0,2.655-0.488,5.018-1.466,7.089s-2.334,3.829-4.069,5.272
			c-1.736,1.444-3.777,2.531-6.126,3.26c-2.349,0.729-4.879,1.095-7.592,1.095c-1.896,0-3.653-0.161-5.272-0.481
			c-1.619-0.321-3.062-0.715-4.332-1.182s-2.334-0.947-3.194-1.444c-0.86-0.495-1.459-0.919-1.794-1.269
			c-0.336-0.351-0.584-0.795-0.744-1.335c-0.16-0.539-0.24-1.261-0.24-2.166c0-0.641,0.028-1.174,0.088-1.597
			c0.058-0.423,0.145-0.766,0.262-1.028s0.263-0.444,0.438-0.547c0.176-0.103,0.379-0.153,0.613-0.153
			c0.408,0,0.984,0.248,1.729,0.744c0.743,0.496,1.699,1.035,2.865,1.619c1.167,0.583,2.574,1.131,4.223,1.641
			c1.648,0.511,3.551,0.766,5.711,0.766c1.633,0,3.129-0.219,4.484-0.656c1.357-0.438,2.523-1.058,3.501-1.859
			c0.978-0.803,1.729-1.787,2.253-2.954c0.525-1.166,0.788-2.494,0.788-3.981c0-1.604-0.365-2.976-1.094-4.113
			c-0.729-1.138-1.692-2.137-2.888-2.998c-1.197-0.859-2.561-1.647-4.092-2.362s-3.1-1.444-4.703-2.188
			c-1.605-0.744-3.166-1.568-4.683-2.473s-2.874-1.969-4.069-3.194c-1.197-1.226-2.166-2.662-2.91-4.311
			c-0.744-1.647-1.115-3.624-1.115-5.929c0-2.362,0.43-4.47,1.291-6.323c0.859-1.852,2.057-3.405,3.588-4.659
			s3.354-2.21,5.469-2.866s4.398-0.984,6.849-0.984c1.254,0,2.516,0.109,3.784,0.328c1.27,0.219,2.465,0.511,3.589,0.875
			c1.122,0.365,2.122,0.773,2.997,1.225c0.875,0.453,1.451,0.817,1.729,1.094c0.277,0.278,0.459,0.497,0.547,0.657
			s0.16,0.364,0.219,0.612s0.102,0.547,0.131,0.896c0.029,0.351,0.045,0.803,0.045,1.356c0,0.525-0.022,0.992-0.066,1.4
			c-0.043,0.409-0.109,0.752-0.197,1.028c-0.087,0.277-0.211,0.481-0.371,0.613c-0.161,0.131-0.344,0.196-0.547,0.196
			c-0.322,0-0.825-0.203-1.51-0.612c-0.686-0.408-1.525-0.868-2.516-1.379c-0.992-0.51-2.166-0.977-3.523-1.399
			c-1.355-0.423-2.881-0.635-4.572-0.635c-1.575,0-2.947,0.212-4.113,0.635c-1.167,0.423-2.129,0.984-2.888,1.685
			s-1.328,1.531-1.706,2.494c-0.38,0.962-0.569,1.983-0.569,3.062c0,1.575,0.364,2.932,1.094,4.069s1.699,2.145,2.909,3.02
			c1.211,0.875,2.59,1.678,4.136,2.406c1.546,0.729,3.121,1.466,4.726,2.21c1.604,0.744,3.18,1.561,4.727,2.45
			c1.545,0.891,2.924,1.94,4.135,3.15c1.21,1.211,2.188,2.641,2.932,4.289C460.172,306.671,460.543,308.618,460.543,310.864z"/>
		<path fill="#393738" d="M507.078,273.365c0,0.554-0.029,1.035-0.088,1.443c-0.059,0.409-0.153,0.737-0.285,0.984
			c-0.131,0.249-0.291,0.431-0.48,0.547c-0.19,0.117-0.402,0.176-0.635,0.176h-15.928v49.095c0,0.234-0.059,0.438-0.175,0.613
			c-0.117,0.175-0.321,0.313-0.612,0.415c-0.293,0.103-0.679,0.189-1.16,0.263c-0.48,0.072-1.087,0.109-1.816,0.109
			c-0.699,0-1.298-0.037-1.793-0.109c-0.496-0.073-0.891-0.16-1.182-0.263c-0.292-0.102-0.496-0.24-0.613-0.415
			c-0.116-0.176-0.174-0.379-0.174-0.613v-49.095h-15.928c-0.234,0-0.445-0.059-0.635-0.176c-0.19-0.116-0.344-0.298-0.459-0.547
			c-0.117-0.247-0.213-0.575-0.285-0.984c-0.073-0.408-0.109-0.89-0.109-1.443c0-0.555,0.036-1.043,0.109-1.466
			c0.072-0.423,0.168-0.767,0.285-1.028c0.115-0.263,0.269-0.452,0.459-0.569c0.189-0.116,0.4-0.175,0.635-0.175h39.381
			c0.232,0,0.444,0.059,0.635,0.175c0.189,0.117,0.35,0.307,0.48,0.569c0.132,0.262,0.227,0.605,0.285,1.028
			S507.078,272.811,507.078,273.365z"/>
		<path fill="#393738" d="M547.662,323.642c0,0.525-0.029,0.984-0.088,1.378c-0.059,0.395-0.16,0.723-0.307,0.985
			c-0.146,0.262-0.313,0.452-0.503,0.568c-0.19,0.117-0.401,0.175-0.635,0.175h-27.173c-0.672,0-1.306-0.226-1.903-0.678
			c-0.599-0.452-0.897-1.247-0.897-2.385v-50.496c0-1.138,0.299-1.932,0.897-2.385c0.598-0.451,1.231-0.678,1.903-0.678h26.867
			c0.232,0,0.443,0.059,0.634,0.175c0.189,0.117,0.343,0.307,0.46,0.569c0.115,0.262,0.211,0.59,0.284,0.984
			c0.072,0.394,0.109,0.883,0.109,1.466c0,0.524-0.037,0.984-0.109,1.378c-0.073,0.394-0.169,0.716-0.284,0.963
			c-0.117,0.248-0.271,0.431-0.46,0.547c-0.19,0.117-0.401,0.175-0.634,0.175h-22.142v17.766h18.991
			c0.232,0,0.443,0.065,0.634,0.197c0.189,0.131,0.351,0.313,0.481,0.547s0.226,0.554,0.285,0.962
			c0.058,0.409,0.087,0.891,0.087,1.444c0,0.525-0.029,0.978-0.087,1.356c-0.06,0.38-0.154,0.686-0.285,0.919
			s-0.292,0.401-0.481,0.503c-0.19,0.103-0.401,0.153-0.634,0.153h-18.991v20.26h22.447c0.233,0,0.444,0.059,0.635,0.175
			c0.189,0.117,0.356,0.3,0.503,0.547c0.146,0.248,0.248,0.569,0.307,0.963S547.662,323.059,547.662,323.642z"/>
		<path fill="#393738" d="M622.375,325.61c0,0.234-0.06,0.438-0.18,0.613c-0.121,0.175-0.33,0.313-0.631,0.415
			c-0.301,0.103-0.684,0.189-1.15,0.263c-0.465,0.072-1.074,0.109-1.824,0.109c-0.691,0-1.285-0.037-1.78-0.109
			c-0.496-0.073-0.886-0.16-1.172-0.263c-0.286-0.102-0.488-0.24-0.608-0.415c-0.121-0.176-0.18-0.379-0.18-0.613v-49.313h-0.088
			l-19.953,49.532c-0.088,0.205-0.212,0.38-0.372,0.525c-0.161,0.146-0.394,0.271-0.7,0.372s-0.672,0.175-1.094,0.219
			c-0.424,0.044-0.926,0.065-1.51,0.065c-0.612,0-1.138-0.029-1.575-0.088s-0.803-0.139-1.094-0.24
			c-0.292-0.102-0.519-0.226-0.679-0.372c-0.16-0.146-0.27-0.306-0.328-0.481l-19.078-49.532h-0.043v49.313
			c0,0.234-0.061,0.438-0.181,0.613c-0.12,0.175-0.331,0.313-0.632,0.415c-0.301,0.103-0.69,0.189-1.172,0.263
			c-0.48,0.072-1.096,0.109-1.847,0.109c-0.722,0-1.322-0.037-1.804-0.109c-0.48-0.073-0.863-0.16-1.148-0.263
			c-0.286-0.102-0.48-0.24-0.586-0.415c-0.105-0.176-0.157-0.379-0.157-0.613v-52.07c0-1.226,0.325-2.101,0.978-2.626
			c0.65-0.524,1.377-0.787,2.177-0.787h4.621c0.948,0,1.777,0.087,2.488,0.263c0.711,0.175,1.333,0.452,1.866,0.831
			c0.533,0.38,0.977,0.86,1.332,1.444c0.356,0.584,0.668,1.269,0.934,2.057l16.19,41h0.219l16.847-40.869
			c0.325-0.875,0.681-1.619,1.066-2.231s0.809-1.101,1.268-1.466c0.459-0.364,0.971-0.627,1.533-0.788
			c0.562-0.16,1.215-0.24,1.957-0.24h4.845c0.444,0,0.866,0.065,1.267,0.196c0.4,0.132,0.741,0.336,1.023,0.613
			c0.281,0.277,0.512,0.627,0.689,1.05c0.178,0.424,0.266,0.941,0.266,1.554V325.61z"/>
		<path fill="#393738" d="M668.735,310.864c0,2.655-0.489,5.018-1.466,7.089c-0.979,2.071-2.334,3.829-4.07,5.272
			c-1.735,1.444-3.777,2.531-6.125,3.26c-2.349,0.729-4.879,1.095-7.592,1.095c-1.896,0-3.654-0.161-5.273-0.481
			c-1.619-0.321-3.062-0.715-4.332-1.182c-1.269-0.467-2.334-0.947-3.193-1.444c-0.861-0.495-1.459-0.919-1.795-1.269
			c-0.336-0.351-0.584-0.795-0.744-1.335c-0.16-0.539-0.24-1.261-0.24-2.166c0-0.641,0.029-1.174,0.088-1.597
			s0.146-0.766,0.263-1.028c0.116-0.263,0.263-0.444,0.438-0.547s0.378-0.153,0.612-0.153c0.408,0,0.984,0.248,1.729,0.744
			s1.699,1.035,2.866,1.619c1.167,0.583,2.574,1.131,4.223,1.641c1.647,0.511,3.551,0.766,5.71,0.766
			c1.633,0,3.129-0.219,4.485-0.656s2.522-1.058,3.501-1.859c0.977-0.803,1.729-1.787,2.253-2.954
			c0.524-1.166,0.788-2.494,0.788-3.981c0-1.604-0.365-2.976-1.094-4.113c-0.73-1.138-1.693-2.137-2.889-2.998
			c-1.196-0.859-2.56-1.647-4.092-2.362c-1.531-0.715-3.1-1.444-4.703-2.188c-1.605-0.744-3.166-1.568-4.682-2.473
			c-1.518-0.904-2.874-1.969-4.07-3.194s-2.166-2.662-2.91-4.311c-0.743-1.647-1.115-3.624-1.115-5.929
			c0-2.362,0.43-4.47,1.291-6.323c0.859-1.852,2.057-3.405,3.588-4.659s3.354-2.21,5.47-2.866c2.114-0.656,4.397-0.984,6.849-0.984
			c1.254,0,2.516,0.109,3.784,0.328s2.465,0.511,3.589,0.875c1.122,0.365,2.121,0.773,2.996,1.225
			c0.876,0.453,1.451,0.817,1.729,1.094c0.277,0.278,0.46,0.497,0.547,0.657c0.088,0.16,0.16,0.364,0.219,0.612
			s0.103,0.547,0.132,0.896c0.028,0.351,0.044,0.803,0.044,1.356c0,0.525-0.021,0.992-0.066,1.4
			c-0.043,0.409-0.109,0.752-0.196,1.028c-0.087,0.277-0.212,0.481-0.372,0.613c-0.16,0.131-0.344,0.196-0.547,0.196
			c-0.321,0-0.824-0.203-1.51-0.612c-0.686-0.408-1.524-0.868-2.516-1.379c-0.992-0.51-2.166-0.977-3.522-1.399
			s-2.882-0.635-4.573-0.635c-1.574,0-2.946,0.212-4.113,0.635c-1.166,0.423-2.129,0.984-2.887,1.685
			c-0.76,0.7-1.328,1.531-1.707,2.494c-0.379,0.962-0.568,1.983-0.568,3.062c0,1.575,0.363,2.932,1.094,4.069
			c0.729,1.138,1.699,2.145,2.909,3.02s2.589,1.678,4.136,2.406c1.545,0.729,3.121,1.466,4.725,2.21
			c1.604,0.744,3.18,1.561,4.727,2.45c1.546,0.891,2.924,1.94,4.135,3.15c1.211,1.211,2.188,2.641,2.932,4.289
			C668.363,306.671,668.735,308.618,668.735,310.864z"/>
	</g>
</g>
</svg>
